# xmcd
#
# Track frame offsets:
#	150
#	9706
#	21553
#	36692
#	45345
#	57049
#	66236
#	73632
#	85174
#	98529
#	110371
#	121125
#	131617
#	140216
#	149847
# Disc length: 2150 seconds
# Revision: 1
# Processed by: cddbd v1.5.1PL0 Copyright (c) Steve Scherf et al.
#
# Submitted via: libkcddb 0.10
#
DISCID=df08640f
DTITLE=Good Shepherd Quartet - Acappella Golden Reflections
DYEAR=1900
DGENRE=
TTITLE0=I Want To Be Faithful
TTITLE1=Go Right Out
TTITLE2=Too Sacred For Mortal Eyes To See
TTITLE3=Working For a Robe And Crown
TTITLE4=I'm Proud Of Salvation
TTITLE5=Mother's Bible
TTITLE6=I'll See You There
TTITLE7=I Want A Religion I Can Feel
TTITLE8=Hiding From The Storms Outside
TTITLE9=Who Rolled The Stone Away
TTITLE10=We'll Reap What We Sow
TTITLE11=The Place Waiting For Me
TTITLE12=Jesus Keeps Me Happy
TTITLE13=Another Friend Is Gone
TTITLE14=In the Coming By And By
EXTD=
EXTT0=
EXTT1=
EXTT2=
EXTT3=
EXTT4=
EXTT5=
EXTT6=
EXTT7=
EXTT8=
EXTT9=
EXTT10=
EXTT11=
EXTT12=
EXTT13=
EXTT14=
PLAYORDER=
